<svg xmlns="http://www.w3.org/2000/svg" viewBox="0 0 124.4 197.55"><defs><style>.cls-1{fill:#707070;}</style></defs><g id="Layer_2" data-name="Layer 2"><g id="Layer_1-2" data-name="Layer 1"><path class="cls-1" d="M64.88,197.48l-1,0Z"/><path class="cls-1" d="M59.05,197.47c-1-.05-2-.12-3-.23C57,197.34,58,197.42,59.05,197.47Z"/><path class="cls-1" d="M62.12,197.55h0Z"/><path class="cls-1" d="M63.83,197.52l-1.66,0C62.73,197.55,63.28,197.53,63.83,197.52Z"/><path class="cls-1" d="M61.8,197.54c-.92,0-1.84,0-2.75-.07C60,197.52,60.89,197.53,61.8,197.54Z"/><path class="cls-1" d="M47.2,195.7l-.43-.11Z"/><path class="cls-1" d="M49.8,196.29c-.86-.18-1.73-.38-2.6-.59C48.06,195.91,48.93,196.11,49.8,196.29Z"/><path class="cls-1" d="M52.89,196.84c-.79-.12-1.59-.26-2.39-.42C51.3,196.57,52.09,196.72,52.89,196.84Z"/><path class="cls-1" d="M50.5,196.42l-.7-.13Z"/><path class="cls-1" d="M56,197.24c-1-.1-2.09-.24-3.12-.4C53.93,197,55,197.14,56,197.24Z"/><path class="cls-1" d="M85,193.4v-.16c-1,.41-2.07.78-3.12,1.13Z"/><path class="cls-1" d="M80.49,194.78l1.33-.41c-.58.2-1.17.36-1.77.54Z"/><path class="cls-1" d="M74.17,196.37l-.73.14Z"/><path class="cls-1" d="M80.05,194.91q-2.91.87-5.88,1.46Q77.16,195.78,80.05,194.91Z"/><path class="cls-1" d="M66.68,197.38c-.6.05-1.2.08-1.8.1C65.48,197.46,66.08,197.43,66.68,197.38Z"/><path class="cls-1" d="M46.77,195.59c-.93-.24-1.85-.5-2.78-.78C44.91,195.09,45.83,195.35,46.77,195.59Z"/><path class="cls-1" d="M71,196.91q-1.84.27-3.72.42Q69.13,197.18,71,196.91Z"/><path class="cls-1" d="M73.44,196.51c-.63.12-1.26.23-1.89.32C72.18,196.74,72.81,196.63,73.44,196.51Z"/><path class="cls-1" d="M67.25,197.33l-.57,0Z"/><path class="cls-1" d="M71.55,196.83l-.58.08Z"/><polygon class="cls-1" points="62.2 191.51 62.2 191.51 62.2 191.51 62.2 191.51"/><path class="cls-1" d="M45.69,189a55.32,55.32,0,0,0,13.55,2.41A56.18,56.18,0,0,1,45.69,189Z"/><path class="cls-1" d="M78.71,189h0a56.67,56.67,0,0,1-13.55,2.42A55.4,55.4,0,0,0,78.71,189Z"/><polygon class="cls-1" points="62.2 191.51 62.2 191.51 62.19 191.51 62.2 191.51"/><path class="cls-1" d="M115.18,115.27l-1.41,0h0c-1.28,0-2.63,0-4,.09A86.12,86.12,0,0,0,82,120.85l-.13.05.13-.05V61.2l27.72-17.85h0v72c1.39-.06,2.74-.09,4-.09h0l1.41,0V33.39l-8.38,5.39-24.91,16V0H43.3V58.62H15.58v56.75c-1.73-.08-3.38-.12-4.94-.12h0c-1.63,0-3.27,0-4.89.12L0,115.64v19.71a62.15,62.15,0,0,0,39.46,57.9c.9.36,1.8.69,2.72,1,.59.2,1.21.37,1.81.56.93.28,1.85.54,2.78.78l.43.11c.87.21,1.74.41,2.6.59l.7.13c.8.16,1.6.3,2.39.42,1,.16,2.07.3,3.12.4s2,.18,3,.23,1.83.07,2.75.07h.37l1.66,0,1,0c.6,0,1.2,0,1.8-.1l.57,0q1.88-.15,3.72-.42l.58-.08c.63-.09,1.26-.2,1.89-.32l.73-.14q3-.59,5.88-1.46c.6-.18,1.19-.34,1.77-.54,1.05-.35,2.09-.72,3.12-1.13a62.08,62.08,0,0,0,39.46-57.89V115.64l-5.75-.27C117.5,115.31,116.34,115.29,115.18,115.27ZM48.74,64.06V5.44H76.46V123.31l.13-.07-.13.07a63,63,0,0,0-7.68,4.47A60.82,60.82,0,0,0,62.2,133a61.69,61.69,0,0,0-6.57-5.19c-.48-.33-1-.63-1.46-.94-1.78-1.15-3.6-2.19-5.43-3.13h0ZM21,64.06H43.3v57.15A82.26,82.26,0,0,0,21,115.79ZM39.78,186.79A56.34,56.34,0,0,1,6,135.35V121.4c1.41-.07,3-.11,4.6-.11s3.21,0,4.94.13,3.56.23,5.44.44a74.27,74.27,0,0,1,22.28,5.92,58.25,58.25,0,0,1,5.44,2.79h0a54.27,54.27,0,0,1,5.43,3.6q1.94,1.44,3.77,3.1c-1.32,1.47-2.59,3-3.77,4.58-.36.5-.7,1-1.06,1.54-1.2,1.74-2.34,3.54-3.39,5.43h0C44,159.24,40.66,171.93,39.78,186.79Zm78.58-51.44a56.33,56.33,0,0,1-33.74,51.43A55.15,55.15,0,0,1,78.71,189h0a55.4,55.4,0,0,1-13.55,2.41H65c-.94,0-1.88.08-2.83.08h0c-.95,0-1.89,0-2.82-.08h-.13A55.32,55.32,0,0,1,45.69,189h0c.77-17.44,5-30.46,11.07-40.17a57.88,57.88,0,0,1,3.89-5.43c.51-.63,1-1.24,1.55-1.83a53.85,53.85,0,0,1,4.25-4.29,55.15,55.15,0,0,1,10-7.16l.13-.07c1.74-1,3.52-1.85,5.3-2.63l.13-.06a78.56,78.56,0,0,1,27.72-6q2.1-.09,4-.09h0l1.42,0c1.11,0,2.18,0,3.18.09Z"/><path class="cls-1" d="M43.91,194.78l.08,0c-.6-.19-1.22-.36-1.81-.56Z"/><path class="cls-1" d="M39.46,193.4l2.72.85c-.92-.31-1.82-.64-2.72-1Z"/><rect class="cls-1" x="60.09" y="16.21" width="5.02" height="5.02"/><rect class="cls-1" x="60.09" y="27.76" width="5.02" height="5.02"/><rect class="cls-1" x="60.09" y="39.31" width="5.02" height="5.02"/><rect class="cls-1" x="32.37" y="74.13" width="5.02" height="5.02"/><rect class="cls-1" x="32.37" y="85.68" width="5.02" height="5.02"/><rect class="cls-1" x="32.37" y="97.23" width="5.02" height="5.02"/><rect class="cls-1" x="93.37" y="66.47" width="5.02" height="5.02"/><rect class="cls-1" x="93.37" y="78.02" width="5.02" height="5.02"/></g></g></svg>